<svg width="51" height="51" viewBox="0 0 51 51" fill="none" xmlns="http://www.w3.org/2000/svg">
<path d="M25.5 44.625C22.1918 43.7669 19.0899 42.2526 16.3785 40.172C13.6672 38.0914 11.4017 35.4871 9.71678 32.5136C8.03184 29.5402 6.9618 26.2584 6.57025 22.8633C6.1787 19.4681 6.47363 16.0289 7.43751 12.75C14.058 13.053 20.5364 10.7665 25.5 6.375C30.4637 10.7665 36.942 13.053 43.5625 12.75C44.5749 16.1957 44.8486 19.8163 44.3658 23.375M38.25 46.75L45.3687 39.7715C45.8053 39.3479 46.1525 38.8411 46.39 38.281C46.6274 37.721 46.7503 37.1191 46.7513 36.5108C46.7523 35.9025 46.6314 35.3002 46.3957 34.7394C46.1601 34.1785 45.8145 33.6706 45.3793 33.2456C44.4914 32.3772 43.2994 31.8899 42.0574 31.8875C40.8154 31.8851 39.6215 32.3679 38.7302 33.2329L38.2542 33.7004L37.7803 33.2329C36.8925 32.3651 35.7009 31.8782 34.4594 31.8758C33.2179 31.8734 32.0245 32.3557 31.1333 33.2201C30.6967 33.6436 30.3492 34.1502 30.1116 34.7102C29.874 35.2702 29.7509 35.8721 29.7497 36.4803C29.7485 37.0886 29.8692 37.691 30.1047 38.2519C30.3401 38.8128 30.6856 39.3208 31.1206 39.746L38.25 46.75Z" stroke="#FFDA56" stroke-width="2" stroke-linecap="round" stroke-linejoin="round"/>
</svg>
