<svg width="52" height="52" viewBox="0 0 52 52" fill="none" xmlns="http://www.w3.org/2000/svg">
<path d="M17.9152 19.1875H34.9152M17.9152 27.6875H27.4777M22.8558 41.7231L17.9152 44.6875V38.3125H13.6652C11.9745 38.3125 10.353 37.6409 9.15742 36.4453C7.96187 35.2498 7.29022 33.6283 7.29022 31.9375V14.9375C7.29022 13.2467 7.96187 11.6252 9.15742 10.4297C10.353 9.23415 11.9745 8.5625 13.6652 8.5625H39.1652C40.856 8.5625 42.4775 9.23415 43.673 10.4297C44.8686 11.6252 45.5402 13.2467 45.5402 14.9375V24.5M38.7402 44.2986L34.1247 46.7169C33.9877 46.7882 33.8337 46.82 33.6797 46.8088C33.5256 46.7976 33.3778 46.7438 33.2526 46.6534C33.1274 46.563 33.0298 46.4396 32.9706 46.297C32.9115 46.1544 32.8932 45.9981 32.9177 45.8456L33.7996 40.7223L30.066 37.0949C29.9545 36.9872 29.8756 36.8503 29.8382 36.6998C29.8009 36.5494 29.8066 36.3915 29.8547 36.2441C29.9027 36.0968 29.9913 35.9659 30.1102 35.8665C30.2291 35.767 30.3736 35.703 30.5271 35.6818L35.6866 34.9338L37.9943 30.2736C38.0634 30.1348 38.1697 30.0181 38.3015 29.9364C38.4333 29.8548 38.5852 29.8115 38.7402 29.8115C38.8952 29.8115 39.0472 29.8548 39.1789 29.9364C39.3107 30.0181 39.4171 30.1348 39.4861 30.2736L41.7938 34.9338L46.9533 35.6818C47.1064 35.7038 47.2503 35.7682 47.3687 35.8677C47.4871 35.9673 47.5752 36.0979 47.6232 36.245C47.6712 36.392 47.677 36.5495 47.6402 36.6997C47.6033 36.8499 47.5251 36.9868 47.4145 37.0949L43.6808 40.7223L44.5606 45.8435C44.587 45.9962 44.57 46.1533 44.5117 46.2969C44.4533 46.4404 44.3558 46.5648 44.2303 46.6557C44.1049 46.7467 43.9564 46.8006 43.8018 46.8114C43.6472 46.8222 43.4926 46.7895 43.3557 46.7169L38.7402 44.2986Z" stroke="#ADCCFF" stroke-width="2" stroke-linecap="round" stroke-linejoin="round"/>
</svg>
