<svg width="52" height="52" viewBox="0 0 52 52" fill="none" xmlns="http://www.w3.org/2000/svg">
<path d="M22.9509 41.1885H11.2634C10.1363 41.1885 9.05525 40.7407 8.25822 39.9437C7.46119 39.1466 7.01343 38.0656 7.01343 36.9385V15.6885M7.01343 15.6885C7.01343 14.5613 7.46119 13.4803 8.25822 12.6833C9.05525 11.8862 10.1363 11.4385 11.2634 11.4385H41.0134C42.1406 11.4385 43.2216 11.8862 44.0186 12.6833C44.8157 13.4803 45.2634 14.5613 45.2634 15.6885M7.01343 15.6885L26.1384 28.4385L45.2634 15.6885M45.2634 15.6885V24.1885M38.8884 47.5635L46.0072 40.585C46.4437 40.1614 46.791 39.6546 47.0284 39.0945C47.2659 38.5345 47.3887 37.9326 47.3897 37.3243C47.3907 36.716 47.2698 36.1137 47.0342 35.5529C46.7986 34.9921 46.453 34.4841 46.0178 34.0591C45.1298 33.1907 43.9378 32.7034 42.6958 32.701C41.4538 32.6986 40.26 33.1814 39.3687 34.0464L38.8927 34.5139L38.4188 34.0464C37.5309 33.1786 36.3394 32.6917 35.0979 32.6893C33.8564 32.6869 32.663 33.1692 31.7718 34.0336C31.3351 34.4571 30.9877 34.9637 30.7501 35.5237C30.5124 36.0837 30.3894 36.6856 30.3882 37.2938C30.387 37.9021 30.5077 38.5045 30.7431 39.0654C30.9786 39.6263 31.324 40.1343 31.759 40.5595L38.8884 47.5635Z" stroke="#FCB8F9" stroke-width="2" stroke-linecap="round" stroke-linejoin="round"/>
</svg>
