<svg width="51" height="52" viewBox="0 0 51 52" fill="none" xmlns="http://www.w3.org/2000/svg">
<path d="M22.3125 43.0635H10.625C9.49783 43.0635 8.41683 42.6157 7.6198 41.8187C6.82277 41.0216 6.375 39.9406 6.375 38.8135V19.6885C6.375 18.5613 6.82277 17.4803 7.6198 16.6833C8.41683 15.8862 9.49783 15.4385 10.625 15.4385H12.75C13.8772 15.4385 14.9582 14.9907 15.7552 14.1937C16.5522 13.3967 17 12.3156 17 11.1885C17 10.6249 17.2239 10.0844 17.6224 9.68588C18.0209 9.28736 18.5614 9.06348 19.125 9.06348H31.875C32.4386 9.06348 32.9791 9.28736 33.3776 9.68588C33.7761 10.0844 34 10.6249 34 11.1885C34 12.3156 34.4478 13.3967 35.2448 14.1937C36.0418 14.9907 37.1228 15.4385 38.25 15.4385H40.375C41.5022 15.4385 42.5832 15.8862 43.3802 16.6833C44.1772 17.4803 44.625 18.5613 44.625 19.6885V25.001M30.9591 24.8947C30.4822 24.1041 29.8393 23.4265 29.0747 22.9087C28.3102 22.391 27.4424 22.0455 26.5312 21.8962C25.62 21.7468 24.6873 21.7972 23.7975 22.0438C22.9077 22.2904 22.0821 22.7274 21.3778 23.3244C20.6735 23.9215 20.1073 24.6644 19.7183 25.5018C19.3294 26.3392 19.127 27.2511 19.1251 28.1744C19.1233 29.0978 19.322 30.0105 19.7076 30.8494C20.0932 31.6884 20.6564 32.4336 21.3583 33.0335M37.825 44.7996L33.2095 47.2179C33.0725 47.2891 32.9184 47.321 32.7644 47.3097C32.6104 47.2985 32.4626 47.2447 32.3374 47.1544C32.2122 47.064 32.1146 46.9406 32.0554 46.798C31.9963 46.6553 31.978 46.4991 32.0025 46.3466L32.8844 41.2232L29.1507 37.5959C29.0393 37.4881 28.9604 37.3512 28.923 37.2008C28.8857 37.0504 28.8913 36.8925 28.9394 36.7451C28.9875 36.5977 29.0761 36.4669 29.195 36.3674C29.3139 36.268 29.4583 36.204 29.6119 36.1827L34.7714 35.4347L37.0791 30.7746C37.1481 30.6358 37.2545 30.519 37.3863 30.4374C37.518 30.3557 37.67 30.3125 37.825 30.3125C37.98 30.3125 38.1319 30.3557 38.2637 30.4374C38.3955 30.519 38.5018 30.6358 38.5709 30.7746L40.8786 35.4347L46.0381 36.1827C46.1912 36.2047 46.3351 36.2692 46.4534 36.3687C46.5718 36.4682 46.66 36.5989 46.708 36.7459C46.756 36.893 46.7618 37.0505 46.7249 37.2007C46.6881 37.3509 46.6099 37.4878 46.4992 37.5959L42.7656 41.2232L43.6454 46.3445C43.6718 46.4972 43.6548 46.6543 43.5964 46.7978C43.5381 46.9414 43.4406 47.0657 43.3151 47.1567C43.1896 47.2476 43.0412 47.3016 42.8866 47.3124C42.732 47.3232 42.5774 47.2905 42.4405 47.2179L37.825 44.7996Z" stroke="#E3FFCD" stroke-width="2" stroke-linecap="round" stroke-linejoin="round"/>
</svg>
