<svg width="52" height="52" viewBox="0 0 52 52" fill="none" xmlns="http://www.w3.org/2000/svg">
<path d="M44.7098 26L25.5848 6.875L6.45978 26H10.7098V40.875C10.7098 42.0022 11.1575 43.0832 11.9546 43.8802C12.7516 44.6772 13.8326 45.125 14.9598 45.125H27.7098M19.2098 45.125V32.375C19.2098 31.2478 19.6575 30.1668 20.4546 29.3698C21.2516 28.5728 22.3326 28.125 23.4598 28.125H27.7098C28.5385 28.125 29.312 28.363 29.9644 28.771M40.4598 46.1875L45.8106 40.705C46.4735 40.0161 46.8438 39.0972 46.8438 38.1412C46.8438 37.1851 46.4735 36.2663 45.8106 35.5774C45.4879 35.2417 45.1009 34.9747 44.6725 34.7923C44.2442 34.6099 43.7835 34.5159 43.3179 34.5159C42.8524 34.5159 42.3916 34.6099 41.9633 34.7923C41.535 34.9747 41.1479 35.2417 40.8253 35.5774L40.4683 35.9429L40.1113 35.5774C39.7887 35.2417 39.4016 34.9747 38.9733 34.7923C38.545 34.6099 38.0842 34.5159 37.6187 34.5159C37.1531 34.5159 36.6924 34.6099 36.2641 34.7923C35.8357 34.9747 35.4487 35.2417 35.1261 35.5774C34.4638 36.2662 34.0939 37.1846 34.0939 38.1401C34.0939 39.0957 34.4638 40.0141 35.1261 40.7029L40.4598 46.2066V46.1875Z" stroke="#E8B6FF" stroke-width="2" stroke-linecap="round" stroke-linejoin="round"/>
</svg>
