<svg width="51" height="52" viewBox="0 0 51 52" fill="none" xmlns="http://www.w3.org/2000/svg">
<path d="M25.5 44.6658C20.4277 44.6658 15.5632 42.6508 11.9766 39.0642C8.38995 35.4776 6.375 30.613 6.375 25.5408C6.375 20.4685 8.38995 15.604 11.9766 12.0174C15.5632 8.43072 20.4277 6.41577 25.5 6.41577C36.0612 6.41577 44.625 14.0275 44.625 23.4158C44.625 25.6683 43.6177 27.8315 41.8242 29.4253C40.0307 31.019 37.5976 31.9158 35.0625 31.9158H29.75C28.802 31.9005 27.876 32.2027 27.1195 32.7743C26.363 33.3459 25.8193 34.154 25.575 35.0702C25.3307 35.9863 25.3998 36.9579 25.7713 37.8302C26.1427 38.7026 26.7952 39.4257 27.625 39.8845C28.0493 40.276 28.3403 40.7906 28.457 41.356C28.5738 41.9214 28.5105 42.5092 28.276 43.0367C28.0416 43.5643 27.6477 44.0051 27.1498 44.2973C26.6519 44.5895 26.0749 44.7184 25.5 44.6658Z" stroke="#FF8D8D" stroke-width="2" stroke-linecap="round" stroke-linejoin="round"/>
<path d="M15.9375 22.3533C15.9375 22.9169 16.1614 23.4574 16.5599 23.8559C16.9584 24.2544 17.4989 24.4783 18.0625 24.4783C18.6261 24.4783 19.1666 24.2544 19.5651 23.8559C19.9636 23.4574 20.1875 22.9169 20.1875 22.3533C20.1875 21.7897 19.9636 21.2492 19.5651 20.8507C19.1666 20.4522 18.6261 20.2283 18.0625 20.2283C17.4989 20.2283 16.9584 20.4522 16.5599 20.8507C16.1614 21.2492 15.9375 21.7897 15.9375 22.3533Z" stroke="#FF8D8D" stroke-width="2" stroke-linecap="round" stroke-linejoin="round"/>
<path d="M24.4375 15.9783C24.4375 16.5419 24.6614 17.0824 25.0599 17.4809C25.4584 17.8794 25.9989 18.1033 26.5625 18.1033C27.1261 18.1033 27.6666 17.8794 28.0651 17.4809C28.4636 17.0824 28.6875 16.5419 28.6875 15.9783C28.6875 15.4147 28.4636 14.8742 28.0651 14.4757C27.6666 14.0772 27.1261 13.8533 26.5625 13.8533C25.9989 13.8533 25.4584 14.0772 25.0599 14.4757C24.6614 14.8742 24.4375 15.4147 24.4375 15.9783Z" stroke="#FF8D8D" stroke-width="2" stroke-linecap="round" stroke-linejoin="round"/>
<path d="M32.9375 22.3533C32.9375 22.9169 33.1614 23.4574 33.5599 23.8559C33.9584 24.2544 34.4989 24.4783 35.0625 24.4783C35.6261 24.4783 36.1666 24.2544 36.5651 23.8559C36.9636 23.4574 37.1875 22.9169 37.1875 22.3533C37.1875 21.7897 36.9636 21.2492 36.5651 20.8507C36.1666 20.4522 35.6261 20.2283 35.0625 20.2283C34.4989 20.2283 33.9584 20.4522 33.5599 20.8507C33.1614 21.2492 32.9375 21.7897 32.9375 22.3533Z" stroke="#FF8D8D" stroke-width="2" stroke-linecap="round" stroke-linejoin="round"/>
</svg>
