<svg width="55" height="56" viewBox="0 0 55 56" fill="none" xmlns="http://www.w3.org/2000/svg">
<path d="M27.3298 55.8171C25.9288 55.3747 25.1075 54.4539 24.9171 52.9441C24.7281 51.4501 24.4723 49.9662 24.245 48.4779C24.1484 47.8444 24.0475 47.2095 23.9566 46.6248C23.4479 46.6248 22.9889 46.6578 22.537 46.6176C21.4742 46.5257 20.5662 46.0789 19.8103 45.3133C16.741 42.2032 13.669 39.0974 10.604 35.983C9.5639 34.9257 9.10352 33.6601 9.33655 32.1633C9.35218 32.0584 9.35218 31.9521 9.36497 31.7725C8.50388 31.6346 7.657 31.4967 6.80729 31.3617C5.44319 31.1462 4.07767 30.9422 2.71499 30.7153C0.569381 30.3576 -0.490636 28.0505 0.687319 26.1959C2.48906 23.3617 4.3377 20.5561 6.19486 17.7578C6.92664 16.6559 7.98666 16.044 9.30387 15.9348C11.7933 15.7279 14.2814 15.5225 16.7723 15.3444C17.1844 15.3157 17.4416 15.1505 17.6988 14.8459C20.9882 10.9572 24.7281 7.61156 29.2026 5.17234C33.2537 2.96439 37.6004 1.6787 42.1502 1.07823C43.4461 0.907285 44.7491 0.790926 46.0492 0.650146C47.5029 0.650146 48.9565 0.650146 50.4101 0.650146C50.5451 0.68175 50.6801 0.727719 50.8165 0.742084C52.6594 0.943198 54.1187 2.27199 54.5152 4.12224C54.5749 4.39949 54.6161 4.67961 54.6644 4.9583V9.37562C54.5237 10.7116 54.4129 12.0504 54.2381 13.3807C53.6413 17.933 52.3923 22.2886 50.2495 26.3496C47.8453 30.9034 44.5374 34.7145 40.6881 38.0617C40.3797 38.3303 40.1907 38.5917 40.1609 39.0371C39.9946 41.5065 39.7787 43.973 39.5968 46.4424C39.4817 47.9924 38.7414 49.1359 37.4725 49.9734C35.9436 50.9804 34.4416 52.029 32.9028 53.0188C31.4165 53.9755 29.8975 54.882 28.3941 55.8114H27.3298V55.8171ZM47.5 3.93836C47.5 3.91681 47.5 3.89526 47.5 3.87228C46.6503 3.91681 45.8006 3.95129 44.9537 4.01162C44.3711 4.05328 43.79 4.12367 43.2102 4.19406C36.5531 4.99852 30.517 7.30558 25.3363 11.7186C21.1943 15.2467 17.7655 19.3537 15.286 24.248C15.1468 24.5238 15.0686 24.7091 15.3414 24.9849C20.4511 30.1406 25.5494 35.3064 30.6406 40.4793C30.8694 40.7121 31.0413 40.7508 31.3198 40.5813C32.6086 39.797 33.9542 39.0988 35.1933 38.2427C40.016 34.9128 44.0329 30.7813 46.9828 25.6572C49.3359 21.5717 50.5778 17.1027 51.1547 12.4311C51.4545 10.0048 51.5611 7.56703 51.4204 5.12493C51.3735 4.31473 51.0566 3.98002 50.2637 3.94698C49.3444 3.90819 48.4222 3.93836 47.5014 3.93836H47.5ZM27.6936 42.2621C22.9534 37.4598 18.314 32.7594 13.6406 28.0246C13.3578 29.0546 13.0082 30.109 12.7823 31.1907C12.302 33.4878 12.177 32.995 13.713 34.558C16.4398 37.3319 19.1694 40.103 21.9204 42.851C22.1861 43.1168 22.6479 43.4228 22.9534 43.3639C24.5448 43.0579 26.1164 42.6413 27.6936 42.2621ZM28.0673 52.3293C28.1583 52.302 28.1966 52.3005 28.225 52.2819C30.7827 50.5724 33.3461 48.8715 35.8867 47.1362C36.1311 46.9696 36.3201 46.609 36.384 46.3059C36.4977 45.7658 36.502 45.2012 36.5446 44.6467C36.6327 43.4889 36.7165 42.331 36.8089 41.0611C33.7312 43.1168 30.5412 44.707 27.0627 45.7586C27.4023 47.9795 27.7348 50.15 28.0687 52.3278L28.0673 52.3293ZM14.783 18.7346C12.9514 18.884 11.2534 18.9874 9.56674 19.1871C9.2314 19.2273 8.84917 19.5707 8.64171 19.8795C7.04316 22.2713 5.48297 24.689 3.91142 27.1009C3.81764 27.2446 3.73238 27.394 3.61302 27.5922C5.81832 27.937 7.96393 28.2732 10.1394 28.6122C11.1823 25.0797 12.7439 21.8605 14.783 18.7346Z" fill="white"/>
<path d="M1.37653 55.8173C1.29127 55.7627 1.20744 55.7024 1.11934 55.655C0.119002 55.1177 -0.0984011 53.924 0.666062 53.0735C1.02414 52.6771 1.41205 52.3079 1.7886 51.9286C4.71715 48.9608 7.64285 45.99 10.5785 43.0279C11.5447 42.0525 12.9699 42.3542 13.3365 43.6025C13.5483 44.3208 13.2669 44.8853 12.7682 45.3896C10.2588 47.9207 7.75795 50.4591 5.25426 52.996C4.66599 53.5921 4.09194 54.2027 3.48378 54.7787C3.09018 55.1522 2.64827 55.4725 2.22909 55.8173H1.37653Z" fill="white"/>
<path d="M11.1625 55.8173C11.0659 55.7771 10.9707 55.734 10.8741 55.6966C9.75721 55.2686 9.40197 53.9297 10.2318 53.0664C11.9625 51.2664 13.723 49.4952 15.4921 47.7325C16.1187 47.1076 17.0963 47.1378 17.7031 47.7354C18.3297 48.3531 18.3709 49.3472 17.7301 50.0094C16.0036 51.7893 14.2601 53.5519 12.501 55.2973C12.2609 55.5358 11.8971 55.6464 11.5902 55.8159H11.1654L11.1625 55.8173Z" fill="white"/>
<path d="M8.64035 39.4553C8.53804 39.6463 8.40589 40.0974 8.11887 40.3962C6.42937 42.1559 4.71004 43.8869 2.98503 45.6122C2.30582 46.2917 1.33674 46.2802 0.703006 45.6323C0.0721111 44.9873 0.0777949 44.0091 0.751318 43.321C2.45644 41.577 4.17151 39.8417 5.89226 38.1121C6.41374 37.5878 7.08016 37.4685 7.69543 37.7573C8.2979 38.0403 8.59772 38.5344 8.63893 39.4567L8.64035 39.4553Z" fill="white"/>
<path d="M37.5095 26.097C33.0875 26.097 29.5451 22.51 29.5437 18.0309C29.5437 13.5676 33.1088 9.95039 37.5109 9.94896C41.903 9.94896 45.4966 13.5848 45.4937 18.0323C45.4923 22.4913 41.9215 26.0984 37.5095 26.0984V26.097ZM32.7366 18.0309C32.7366 20.71 34.8452 22.8547 37.4853 22.8648C40.1439 22.8763 42.3051 20.7057 42.3023 18.028C42.2995 15.3762 40.1609 13.2013 37.5365 13.1797C34.8964 13.1582 32.7351 15.3417 32.7366 18.0294V18.0309Z" fill="white"/>
</svg>
