<svg width="704" height="682" viewBox="0 0 704 682" fill="none" xmlns="http://www.w3.org/2000/svg">
<g clip-path="url(#clip0_2636_2040)">
<g clip-path="url(#clip1_2636_2040)">
<path d="M460.635 172.958C478.018 157.042 498.309 142.316 521.808 139.828C545.307 137.339 571.914 151.454 575.682 174.652C580.286 202.896 551.07 229.24 557.509 257.141C562.175 277.316 584.262 290.583 587.078 311.087C588.805 323.698 582.389 336.476 572.712 344.812C563.034 353.148 550.525 357.545 537.97 359.98C488.854 369.499 425.924 346.659 400.369 301.965C373.363 254.728 428.549 202.316 460.635 172.958Z" fill="#3C0506"/>
<path d="M408.816 175.499C447.058 182.117 485.644 196.041 512.259 224.14C540.654 254.132 551.897 296.407 556.287 337.384C560.577 377.46 559.226 418.582 547.538 457.162C535.85 495.742 513.264 531.727 480.518 555.498C432.852 590.147 370.36 595.399 311.36 598.093C277.961 599.62 244.217 600.696 211.348 594.605C178.478 588.513 146.116 574.612 123.438 550.215C100.76 525.819 89.1259 489.857 99.1025 458.101C111.305 419.01 151.879 393.819 164.258 354.75C179.852 305.56 148.257 229.507 206.144 199.453C264.922 168.949 344.835 164.407 408.816 175.499Z" fill="#FFD4C9"/>
<path d="M57.2934 461.956C53.5406 484.605 58.2834 508.048 67.27 529.185C92.1887 587.697 151.688 630.086 215.385 634.757C230.734 635.887 246.758 634.849 260.556 628.009C274.355 621.17 285.49 607.559 285.928 592.238C286.465 573.628 271.661 557.781 255.23 548.865C238.799 539.949 220.143 535.735 203.551 527.117C182.9 516.376 166.545 498.361 156.676 477.498C146.899 456.789 152.524 435.132 145.387 415.277C126.654 363.117 62.3891 431.224 57.2934 461.956Z" fill="#0061FF"/>
<path d="M164.627 267.454C186.744 279.858 217.733 273.095 232.606 252.629C257.932 217.79 236.152 145.759 185.854 166.095C144.674 182.752 114.145 239.141 164.627 267.454Z" fill="#FC724D"/>
<path d="M243.504 575.277C224.098 573.034 205.409 566.642 188.718 556.542C172.028 546.441 157.731 532.87 146.807 516.758C136.048 500.533 128.944 482.186 125.982 462.973C123.02 443.761 124.27 424.139 129.647 405.453L132.402 406.255C127.134 424.542 125.905 443.747 128.801 462.551C131.696 481.355 138.648 499.313 149.179 515.193C159.872 530.96 173.867 544.24 190.204 554.122C206.541 564.004 224.833 570.255 243.826 572.445L243.504 575.277Z" fill="white"/>
<path d="M516.111 439.797L513.264 439.492C517.654 399.385 522.197 357.919 516.196 317.301C509.511 272.072 489.727 234.706 460.564 212.08C428.892 187.538 389.485 182.217 362.01 182.072C325.856 181.851 289.703 189.943 257.754 197.057L257.125 194.271C289.219 187.126 325.688 179.004 362.026 179.225C389.953 179.37 430.02 184.805 462.33 209.836C492.121 232.92 512.259 270.904 519.051 316.896C525.083 357.858 520.524 399.515 516.111 439.797Z" fill="white"/>
<path d="M537.217 565.01L534.83 563.43C575.136 503.125 589.541 425.033 573.371 354.453L576.164 353.82C592.51 425.117 577.983 504.094 537.217 565.01Z" fill="#3C0506"/>
<path d="M58.7964 418.049L56.1641 416.919C64.744 397.178 83.1471 384.453 100.944 372.148C103.042 370.698 105.124 369.25 107.191 367.804C123.614 356.27 145.609 338.095 147.005 313.606C147.88 298.263 140.705 284.66 133.107 270.255C128.272 261.095 123.276 251.606 120.537 241.622C111.212 207.561 131.565 169.011 164.979 157.324L165.93 160.019C134.465 171.034 114.512 208.797 123.307 240.835C125.962 250.522 130.889 259.858 135.647 268.896C143.091 283.011 150.789 297.606 149.868 313.736C148.402 339.492 125.755 358.255 108.848 370.133C106.802 371.588 104.712 373.041 102.579 374.491C85.1117 386.568 67.0463 399.056 58.7964 418.049Z" fill="#3C0506"/>
<path d="M402.579 501.903C393.592 511.46 385.825 524.582 389.77 537.063C393.653 549.369 409.915 555.934 421.327 549.811C429.04 545.674 433.529 537.498 439.653 531.269C445.778 525.041 456.23 520.773 463.045 526.262C471.41 532.987 466.046 546.705 458.356 554.185C450.666 561.666 440.444 568.735 439.845 579.414C439.162 591.628 452.784 600.735 465.025 599.911C477.265 599.086 487.848 591.43 497.311 583.659C511.608 571.926 525.368 558.949 534.224 542.758C543.081 526.567 546.503 506.583 539.527 489.506C517.28 434.995 430.291 472.445 402.579 501.903Z" fill="#FF7171"/>
</g>
</g>
<defs>
<clipPath id="clip0_2636_2040">
<rect width="704" height="682" fill="white"/>
</clipPath>
<clipPath id="clip1_2636_2040">
<rect width="593" height="684.231" fill="white" transform="translate(56 -1)"/>
</clipPath>
</defs>
</svg>
